<?xml version="1.0" encoding="UTF-8"?><svg id="e" xmlns="http://www.w3.org/2000/svg" viewBox="0 0 60 60"><rect width="60" height="60" fill="#497c9c" stroke-width="0"/><path d="m25.08948,32.85814l-.16539-.41036-3.54467,6.08751-.04834.08207.00253.00809-.30774.52863c-.85462,1.15866-1.81251,2.25301-2.87252,3.2733-.29865.28567-.40628.71813-.26589,1.07325l1.09368,2.7857c.11152.28094.35936.45771.64648.45929l1.92359.02367c1.29639.01822,2.16054.02986,3.16688.02683l.31877-1.35734c-.61871-.15392-1.5085-.44546-1.95671-.89805-1.32717-1.47472-1.00834-3.13814-.59783-4.69831l1.76227-3.0259.05454-.09154-.00311-.0074,1.33744-2.29692.05454-.09154c-.20393-.49287-.4054-.99239-.59854-1.47098Z" fill="#fff" stroke-width="0"/><path d="m53.51964,45.2478c-1.06201-.27462-2.09278-1.29894-2.97851-2.96721-2.88313-6.10539-5.01877-12.53111-6.88224-18.43614l-1.29793.07615-.10424-.06274-.04154.07132-.00797.00049-.07959.14984-7.05472,12.11228c-3.17988-8.42339-8.37281-22.26667-8.44706-22.46662-.11147-.28252-.35934-.4585-.64796-.45929-1.81979.00019-4.6395-.05037-6.38116-.05287l-.18168,1.37628c1.39645.37917,2.30734,1.17977,3.09648,2.88278.07434.16284.73017,1.88418,1.68139,4.3995l-4.32981,7.43567c-.89853-2.21317-1.58787-3.99596-2.20169-5.70191l-3.88255-9.87701c-.11145-.28331-.36077-.46007-.65238-.46007-2.00982.00756-5.10597-.04312-6.9423-.04814l-.18417,1.41021c1.44563.26902,2.41139,1.18038,3.45745,3.08873,2.87621,6.09805,5.01872,12.532,6.88075,18.43614l1.29895-.07625.10325.06205.04105-.07053.00843-.00049.0801-.15152,7.05422-12.11109c3.17924,8.42329,8.37278,22.26795,8.44702,22.46791.11286.28567.35492.45771.64944.45929,1.82335-.0007,4.63046.04777,6.3797.05208l.18168-1.37628c-1.39653-.37801-2.3075-1.18099-3.09503-2.88199-.07471-.16284-.73098-1.88477-1.68273-4.40098l4.33038-7.43607c.88956,2.18812,1.5786,3.9715,2.20099,5.70378l3.8826,9.87543c.11142.28409.36075.46086.65235.46086,2.0333-.00834,5.05896.04466,6.94233.04735l.18706-1.40784-.48036-.12311Z" fill="#fff" stroke-width="0"/><path d="m34.93243,27.2023l.14051.35117,3.59456-6.17195-.00245-.00769.31554-.54185c.85843-1.15673,1.81438-2.25167,2.86464-3.26047.29719-.28646.40478-.71734.26584-1.07167l-1.09511-2.78728c-.1129-.28409-.35351-.45534-.64502-.4585l-1.92507-.02367c-1.2964-.01794-2.16055-.03061-3.16691-.02604l-.31875,1.35655c.6179.15426,1.51106.44852,1.95671.89805,1.32948,1.47553,1.00765,3.13824.59785,4.69752l-1.76227,3.0259-.05454.09154.00336.00819-1.33772,2.29692-.05456.09233c.21206.51192.42345,1.03409.62339,1.53095Z" fill="#fff" stroke-width="0"/></svg>