<svg width="30" height="30" viewBox="0 0 30 30" fill="none" xmlns="http://www.w3.org/2000/svg">
<path d="M8.70698 7.29289C8.31646 6.90237 7.6833 6.90237 7.29277 7.29289C6.90225 7.68342 6.90225 8.31658 7.29277 8.70711L13.5857 15L7.29277 21.2929C6.90225 21.6834 6.90225 22.3166 7.29277 22.7071C7.6833 23.0976 8.31646 23.0976 8.70699 22.7071L14.9999 16.4142L21.2928 22.7071C21.6833 23.0976 22.3165 23.0976 22.707 22.7071C23.0975 22.3166 23.0975 21.6834 22.707 21.2929L16.4141 15L22.707 8.70711C23.0975 8.31658 23.0975 7.68342 22.707 7.29289C22.3165 6.90237 21.6833 6.90237 21.2928 7.29289L14.9999 13.5858L8.70698 7.29289Z" />
</svg>
