<svg width="30" height="30" viewBox="0 0 30 30" fill="none" xmlns="http://www.w3.org/2000/svg">
<path fill-rule="evenodd" clip-rule="evenodd" d="M24 14C24 18.4183 20.4183 22 16 22C14.4087 22 12.9259 21.5354 11.6798 20.7344L7.70711 24.7071C7.31658 25.0976 6.68342 25.0976 6.29289 24.7071C5.90237 24.3166 5.90237 23.6834 6.29289 23.2929L10.1398 19.446C8.81205 18.0179 8 16.1038 8 14C8 9.58172 11.5817 6 16 6C20.4183 6 24 9.58172 24 14ZM22 14C22 17.3137 19.3137 20 16 20C12.6863 20 10 17.3137 10 14C10 10.6863 12.6863 8 16 8C19.3137 8 22 10.6863 22 14Z" fill="black"/>
</svg>
